<svg xmlns="http://www.w3.org/2000/svg" width="400" height="400" preserveAspectRatio="xMidYMid meet" version="1.0" viewBox="0 0 300 300"><metadata>Created by potrace 1.14, written by Peter Selinger 2001-2017</metadata><g fill="#000" stroke="none"><path d="M1290 2983 c-485 -67 -917 -379 -1134 -820 -62 -124 -113 -279 -132 -398 -3 -20 -8 -47 -11 -59 -12 -51 -10 -326 3 -415 50 -335 189 -613 425 -851 78 -78 224 -195 259 -208 8 -3 28 -14 44 -25 39 -27 172 -91 221 -107 22 -7 45 -15 50 -19 6 -3 15 -6 20 -8 6 -1 44 -11 85 -22 275 -74 591 -62 865 31 419 142 761 475 918 893 31 81 66 209 73 269 3 22 9 64 13 93 8 56 6 313 -3 352 -3 12 -8 42 -10 66 -7 55 -38 172 -70 261 -85 235 -243 461 -437 626 -195 166 -470 295 -709 333 -19 3 -46 8 -60 11 -53 11 -319 10 -410 -3z" transform="translate(0.000000,300.000000) scale(0.100000,-0.100000)"/></g></svg>