<svg xmlns="http://www.w3.org/2000/svg" width="105.936" height="36" viewBox="0 0 105.936 36"><g fill="#cccd1e" color="#cccd1e" transform="translate(0 4) scale(0.6363637)"><svg width="44" height="44" x="0" y="0" viewBox="0 0 44 44"><path fill="currentColor" fill-rule="evenodd" d="M21.973 29.756l14.787 8.535-9.168 5.28-5.605-3.224-5.563 3.225-9.182-5.281 14.73-8.535zm0-15.005L44 27.454v6.492l-3.52 2.07-18.506-10.675L3.525 36.016l-3.52-2.042v-6.52L21.973 14.75zM21.97 0l22.026 12.689v10.576L21.984 10.591 0 23.294V12.703L21.97 0z"/></svg></g><path fill="#444859" fill-rule="nonzero" d="M6.98 4.44Q9.89 4.44 11.71 5.41Q13.54 6.38 13.54 8.57L13.54 8.57L13.54 13.51Q13.54 13.92 13.73 14.18Q13.92 14.45 14.30 14.45L14.30 14.45L15.17 14.45L15.17 17.21Q15.10 17.26 14.80 17.36Q14.50 17.47 13.94 17.58Q13.39 17.69 12.67 17.69L12.67 17.69Q11.28 17.69 10.38 17.27Q9.48 16.85 9.14 16.10L9.14 16.10Q8.23 16.82 7.10 17.26Q5.98 17.69 4.46 17.69L4.46 17.69Q0 17.69 0 14.14L0 14.14Q0 12.29 1.00 11.32Q1.99 10.34 3.86 9.98Q5.74 9.62 8.76 9.62L8.76 9.62L8.76 9.00Q8.76 8.26 8.24 7.87Q7.73 7.49 6.91 7.49L6.91 7.49Q6.17 7.49 5.63 7.75Q5.09 8.02 5.09 8.59L5.09 8.59L5.09 8.69L0.38 8.69Q0.36 8.57 0.36 8.35L0.36 8.35Q0.36 6.55 2.08 5.50Q3.79 4.44 6.98 4.44L6.98 4.44ZM8.76 11.88Q6.72 11.88 5.75 12.32Q4.78 12.77 4.78 13.51L4.78 13.51Q4.78 14.71 6.41 14.71L6.41 14.71Q7.34 14.71 8.05 14.21Q8.76 13.70 8.76 12.96L8.76 12.96L8.76 11.88ZM25.32 4.44Q27.89 4.44 29.28 6.12Q30.67 7.80 30.67 11.09L30.67 11.09Q30.67 14.35 29.28 16.02Q27.89 17.69 25.32 17.69L25.32 17.69Q23.11 17.69 21.77 16.25L21.77 16.25L21.77 22.13L16.99 22.13L16.99 4.73L20.88 4.73L21.29 6.53Q22.68 4.44 25.32 4.44L25.32 4.44ZM23.83 7.97Q22.78 7.97 22.25 8.71Q21.72 9.46 21.72 10.66L21.72 10.66L21.72 11.45Q21.72 12.65 22.25 13.40Q22.78 14.16 23.83 14.16L23.83 14.16Q25.90 14.16 25.90 11.69L25.90 11.69L25.90 10.42Q25.90 7.97 23.83 7.97L23.83 7.97ZM39.24 4.44Q42.14 4.44 43.97 5.41Q45.79 6.38 45.79 8.57L45.79 8.57L45.79 13.51Q45.79 13.92 45.98 14.18Q46.18 14.45 46.56 14.45L46.56 14.45L47.42 14.45L47.42 17.21Q47.35 17.26 47.05 17.36Q46.75 17.47 46.20 17.58Q45.65 17.69 44.93 17.69L44.93 17.69Q43.54 17.69 42.64 17.27Q41.74 16.85 41.40 16.10L41.40 16.10Q40.49 16.82 39.36 17.26Q38.23 17.69 36.72 17.69L36.72 17.69Q32.26 17.69 32.26 14.14L32.26 14.14Q32.26 12.29 33.25 11.32Q34.25 10.34 36.12 9.98Q37.99 9.62 41.02 9.62L41.02 9.62L41.02 9.00Q41.02 8.26 40.50 7.87Q39.98 7.49 39.17 7.49L39.17 7.49Q38.42 7.49 37.88 7.75Q37.34 8.02 37.34 8.59L37.34 8.59L37.34 8.69L32.64 8.69Q32.62 8.57 32.62 8.35L32.62 8.35Q32.62 6.55 34.33 5.50Q36.05 4.44 39.24 4.44L39.24 4.44ZM41.02 11.88Q38.98 11.88 38.00 12.32Q37.03 12.77 37.03 13.51L37.03 13.51Q37.03 14.71 38.66 14.71L38.66 14.71Q39.60 14.71 40.31 14.21Q41.02 13.70 41.02 12.96L41.02 12.96L41.02 11.88ZM55.54 4.44Q58.66 4.44 60.59 5.77Q62.52 7.10 62.52 9.84L62.52 9.84L57.89 9.84Q57.89 7.68 55.54 7.68L55.54 7.68Q53.18 7.68 53.18 10.39L53.18 10.39L53.18 11.76Q53.18 14.45 55.63 14.45L55.63 14.45Q58.08 14.45 58.08 12.24L58.08 12.24L62.52 12.24Q62.52 15.00 60.59 16.34Q58.66 17.69 55.54 17.69L55.54 17.69Q52.20 17.69 50.30 16.01Q48.41 14.33 48.41 11.06L48.41 11.06Q48.41 7.80 50.30 6.12Q52.20 4.44 55.54 4.44L55.54 4.44ZM69.94 3.24L65.16 3.24L65.16 0L69.94 0L69.94 3.24ZM69.94 17.40L65.16 17.40L65.16 4.73L69.94 4.73L69.94 17.40Z" transform="translate(36, 9.3)"/></svg>